<svg width="168" height="346" viewBox="0 0 168 346" fill="none" xmlns="http://www.w3.org/2000/svg">
<g opacity="0.7">
<path opacity="0.7" d="M165.839 211.579C153.071 194.175 138.272 181.123 121.732 173.002C138.562 164.88 153.361 151.828 165.839 134.424L167 132.974L166.42 131.234C162.357 115.281 156.553 100.778 148.718 86.8557C140.884 73.2232 131.017 60.4609 119.41 49.4389L118.249 48.2787L116.508 48.5687C95.0347 50.8892 76.4631 57.2703 61.0834 67.7122C62.2441 49.1488 58.4717 29.7153 49.7663 9.99166L48.8957 8.25133L47.1546 7.67123C31.4848 3.03038 16.1051 1 -0.145106 1C-15.815 1 -31.775 3.32043 -47.1547 7.67123L-48.8958 8.25133L-49.7663 9.99166C-58.4718 29.7153 -62.2441 49.1488 -61.0834 67.7122C-76.4631 57.2703 -95.325 50.8892 -116.508 48.5687L-118.249 48.2787L-119.41 49.4389C-131.308 60.751 -140.884 73.2232 -148.718 86.8557C-156.553 100.488 -162.647 115.281 -166.42 130.944L-167 132.684L-165.839 134.134C-153.071 151.538 -138.272 164.59 -121.732 172.711C-138.562 180.833 -153.361 193.885 -165.839 211.289L-167 213.029L-166.42 214.769C-162.357 230.722 -156.553 245.225 -148.718 259.147C-140.884 272.78 -131.017 285.542 -119.41 296.564L-118.249 297.724L-116.508 297.434C-95.0348 295.114 -76.4631 288.733 -61.0834 278.291C-62.2441 296.854 -58.4718 316.288 -49.7663 336.011L-48.8958 337.752L-47.1547 338.332C-31.4848 342.973 -16.1051 345.003 0.145094 345.003C15.8149 345.003 31.775 342.683 47.1546 338.332L48.8957 337.752L49.7663 336.011C58.4717 316.288 62.2441 296.854 61.0834 278.291C76.4631 288.733 95.3249 295.114 116.508 297.434L118.249 297.724L119.41 296.564C131.308 285.252 140.884 272.78 148.718 259.147C156.553 245.515 162.647 230.722 166.42 215.059L167 213.319L165.839 211.579ZM52.3779 75.2536L50.927 85.1154L58.4717 79.0243C73.8514 66.8421 93.0035 59.3007 115.348 56.4002C124.924 65.9719 133.049 76.4138 140.013 87.7259L3.62727 166.62V9.1215C16.9757 9.41155 30.0338 11.1519 43.0921 14.9226C52.3779 35.5163 55.2798 55.8201 52.3779 75.2536ZM-115.348 56.1101C-92.7133 58.7206 -73.8515 66.262 -58.4718 78.7342L-50.927 84.8254L-52.3779 74.9635C-55.2798 55.53 -52.3779 35.2263 -43.3823 14.3425C-30.3241 10.8618 -16.9757 8.83145 -3.91749 8.5414V166.04L-140.303 87.1458C-133.339 76.1238 -125.214 65.6818 -115.348 56.1101ZM-158.875 214.479C-145.236 196.206 -129.276 183.443 -110.995 176.482L-101.709 173.002L-110.995 169.521C-129.276 162.56 -145.526 149.507 -158.875 131.524C-155.393 118.472 -150.46 105.999 -144.076 94.3971L-7.68987 173.002L-144.076 251.606C-150.46 240.004 -155.393 227.822 -158.875 214.479ZM-52.3779 270.749L-50.927 260.888L-58.4718 266.979C-73.8515 279.161 -93.0035 286.702 -115.348 289.603C-124.924 280.031 -133.049 269.589 -140.013 258.277L-3.62729 179.383V336.882C-16.9757 336.591 -30.0339 334.851 -43.0921 331.08C-52.378 310.487 -55.2798 290.183 -52.3779 270.749ZM115.348 289.603C92.7133 286.992 73.8514 279.451 58.4717 266.979L50.927 260.888L52.3779 270.749C55.2798 290.183 52.3779 310.487 43.3823 331.371C30.324 334.851 16.9756 336.882 3.91743 337.172V179.673L140.303 258.567C133.049 269.879 124.924 280.031 115.348 289.603ZM143.785 251.606L7.39965 173.002L143.785 94.3971C150.169 105.999 155.103 118.181 158.585 131.524C144.946 149.797 128.986 162.56 110.705 169.521L101.419 173.002L110.705 176.482C128.986 183.443 145.236 196.496 158.585 214.479C155.393 227.531 150.169 240.004 143.785 251.606Z" stroke="#A6B720" stroke-miterlimit="10"/>
</g>
</svg>
