<svg width="168" height="337" viewBox="0 0 168 337" fill="none" xmlns="http://www.w3.org/2000/svg">
<path opacity="0.7" d="M146.041 221.856C144.449 217.343 143.653 212.565 142.857 207.521C141.796 200.885 140.735 193.983 137.816 187.347C134.367 180.18 129.857 173.809 124.02 168.5C129.857 163.191 134.367 156.82 137.816 149.653C141 143.017 142.061 136.115 142.857 129.479C143.653 124.435 144.449 119.657 145.776 115.144C149.224 104.792 158.245 93.6426 167 88.5991L162.49 80.901C153.735 85.9446 139.408 88.0682 128.531 85.9445C123.755 84.8827 119.245 83.29 114.469 81.4318C108.102 79.0428 101.469 76.3882 94.3061 75.8573C86.347 75.061 78.3877 75.8574 70.6938 77.981C68.8367 70.2829 65.6531 63.1157 60.8776 56.7449C56.6327 50.9049 51.0612 46.3923 45.7551 42.4105C41.7755 39.2251 37.7959 36.3051 34.6123 32.5887C27.1837 24.3597 21.8775 11.0872 21.8775 1H13.1225C13.1225 11.0872 7.81629 24.3597 0.387723 32.5887C-2.79595 36.3051 -6.51019 39.2251 -10.7551 42.4105C-16.0612 46.6577 -21.6327 50.9049 -25.8776 56.7449C-30.3878 63.1157 -33.8367 70.2829 -35.6938 77.981C-43.3877 75.8574 -51.0817 75.061 -59.3061 75.8573C-66.7347 76.6537 -73.102 79.0428 -79.4693 81.4318C-84.2449 83.29 -88.7551 85.1482 -93.5306 85.9445C-104.408 88.0682 -118.735 85.9446 -127.49 80.901L-132 88.5991C-123.245 93.6426 -114.224 104.792 -110.776 115.144C-109.184 119.657 -108.388 124.435 -107.592 129.479C-106.531 136.115 -105.469 143.017 -102.551 149.653C-99.102 156.82 -94.5918 163.191 -88.7551 168.5C-94.5918 173.809 -99.102 180.18 -102.551 187.347C-105.735 193.983 -106.796 200.885 -107.592 207.521C-108.388 212.565 -109.184 217.343 -110.776 221.856C-114.224 232.208 -123.245 243.357 -132 248.401L-127.49 256.099C-118.735 251.056 -104.408 248.932 -93.5306 251.055C-88.7551 252.117 -84.2449 253.71 -79.4693 255.568C-73.102 257.957 -66.4694 260.612 -59.3061 261.143C-51.347 261.939 -43.3877 261.143 -35.6938 259.019C-33.8367 266.717 -30.6531 273.884 -25.8776 280.255C-21.6327 286.095 -16.0612 290.608 -10.7551 294.59C-6.77549 297.775 -2.79595 300.695 0.387723 304.411C7.81629 312.64 13.1225 325.913 13.1225 336H21.8775C21.8775 325.913 27.1837 312.64 34.6123 304.411C37.7959 300.695 41.5102 297.775 45.7551 294.59C51.0612 290.342 56.6327 286.095 60.8776 280.255C65.3878 273.884 68.8367 266.717 70.6938 259.019C78.3877 261.143 86.0817 261.939 94.3061 261.143C101.735 260.346 108.102 257.957 114.469 255.568C119.245 253.71 123.755 251.852 128.531 251.055C139.408 248.932 153.735 251.056 162.49 256.099L167 248.401C158.51 243.357 149.49 232.208 146.041 221.856ZM129.592 191.063C132.245 196.638 133.041 202.478 134.102 208.849C134.898 214.158 135.694 219.467 137.551 224.776C138.612 228.227 140.469 231.412 142.326 234.863L33.2857 172.482H115.265C121.367 177.525 126.408 183.631 129.592 191.063ZM137.551 111.959C135.694 117.268 134.898 122.577 134.102 127.886C133.041 134.257 132.245 140.097 129.592 145.671C126.143 152.838 121.367 159.209 115 164.253H33.0204L142.061 101.872C140.469 105.323 138.612 108.773 137.551 111.959ZM28.5102 37.8978C32.2245 42.145 36.4694 45.5959 40.7143 48.7813C45.7551 52.7631 50.5306 56.4794 53.9796 61.523C58.7551 68.1592 61.9388 75.8573 63.2653 84.0863L64.0612 89.3954L69.1021 87.5373C77.0612 84.6173 85.0204 83.29 93.5102 84.0863C99.6122 84.6173 105.184 86.7408 111.286 89.1299C116.327 90.9881 121.367 93.1118 126.939 94.1736C130.388 94.9699 134.367 95.2354 138.082 95.2354L21.8775 161.598V28.8724C24 32.0578 26.1224 35.2433 28.5102 37.8978ZM-90.6122 94.1736C-85.0408 93.1118 -80 90.9881 -74.9592 89.1299C-68.8572 86.7408 -63.2857 84.6173 -57.1836 84.0863C-48.6939 83.29 -40.4694 84.3518 -32.7755 87.5373L-27.7347 89.3954L-26.9388 84.0863C-25.6122 75.8573 -22.4286 68.1592 -17.6531 61.523C-14.2041 56.4794 -9.42857 52.7631 -4.38775 48.7813C-0.142856 45.5959 4.10206 42.145 7.81634 37.8978C10.2041 35.2433 12.3265 32.0578 14.1837 28.607V161.333L-102.02 94.9699C-98.0408 95.2353 -94.3265 94.9699 -90.6122 94.1736ZM-93.2653 145.671C-95.9184 140.097 -96.7143 134.257 -97.7755 127.886C-98.5714 122.577 -99.3673 117.268 -101.224 111.959C-102.286 108.508 -104.143 105.323 -106 101.872L3.04078 164.253H-78.9388C-85.0408 159.209 -89.8163 152.838 -93.2653 145.671ZM-101.224 224.51C-99.3673 219.201 -98.5714 213.892 -97.7755 208.583C-96.7143 202.212 -95.9184 196.372 -93.2653 190.798C-89.8163 183.631 -85.0408 177.26 -78.6735 172.216H3.30611L-105.735 234.597C-103.878 231.412 -102.286 227.961 -101.224 224.51ZM7.81634 298.837C4.10206 294.59 -0.142856 291.139 -4.38775 287.953C-9.42857 283.972 -14.2041 280.255 -17.6531 275.212C-22.4286 268.575 -25.6122 260.877 -26.9388 252.648L-27.7347 247.339L-32.7755 249.197C-40.7347 252.117 -48.9592 253.445 -57.1836 252.648C-63.2857 252.117 -68.8572 249.994 -74.9592 247.605C-80 245.746 -85.0408 243.623 -90.6122 242.561C-94.0612 241.765 -98.0408 241.499 -101.755 241.499L14.449 175.136V307.862C12.3265 304.677 10.2041 301.491 7.81634 298.837ZM127.204 242.561C121.633 243.623 116.592 245.746 111.551 247.605C105.449 249.994 99.8775 252.117 93.7755 252.648C85.2857 253.445 77.0612 252.383 69.3673 249.197L64.3265 247.339L63.5306 252.648C62.2041 260.877 59.0204 268.575 54.2449 275.212C50.7959 279.99 46.0204 283.972 40.9796 287.953C36.7347 291.139 32.4898 294.59 28.7755 298.837C26.3878 301.491 24.2653 304.677 22.4082 308.128V175.402L138.612 241.765C134.367 241.499 130.653 241.765 127.204 242.561Z" stroke="#9EB01C" stroke-miterlimit="10"/>
</svg>
